<svg version="1.1" xmlns:xlink="http://www.w3.org/1999/xlink" width="51px" height="20px" xmlns="http://www.w3.org/2000/svg">
  <g transform="matrix(1 0 0 1 -1312 -338 )">
    <path d="M 40.6171875 12  L 14.53125 12  C 12.8125 12.8787878787879  10.71875 13.1818181818182  8.25 13.1818181818182  L 5.25 13.1818181818182  L 5.25 12.2727272727273  L 3.75 12.2727272727273  C 3.546875 12.2727272727273  3.37109375 12.1614583333333  3.22265625 11.9389204545455  C 3.07421875 11.7163825757576  3 11.4488636363636  3 11.1363636363636  C 3 10.9090909090909  3.0546875 10.6770833333333  3.1640625 10.4403409090909  C 2.2578125 10.4214015151515  1.50390625 10.3716856060606  0.90234375 10.2911931818182  C 0.30078125 10.2107007575758  0 10.1136363636364  0 10  C 0 9.88636363636363  0.30078125 9.78929924242424  0.90234375 9.70880681818182  C 1.50390625 9.62831439393939  2.2578125 9.57859848484848  3.1640625 9.55965909090909  C 3.0546875 9.32291666666666  3 9.09090909090909  3 8.86363636363637  C 3 8.55113636363637  3.07421875 8.28361742424242  3.22265625 8.06107954545455  C 3.37109375 7.83854166666667  3.546875 7.72727272727273  3.75 7.72727272727273  L 5.25 7.72727272727273  L 5.25 6.81818181818182  L 8.25 6.81818181818182  C 10.71875 6.81818181818182  12.8125 7.12121212121212  14.53125 8  L 40.6171875 8  C 41.2734375 7.79356060606061  42.10546875 7.87878787878788  43.11328125 7.98295454545455  C 44.12109375 8.08712121212121  44.75 8.15340909090909  45 8.18181818181818  C 46.390625 8.32386363636363  47.5625 8.515625  48.515625 8.75710227272727  C 49.46875 8.99857954545455  50.12109375 9.22348484848485  50.47265625 9.43181818181818  C 50.82421875 9.64015151515151  51 9.82954545454545  51 10  C 51 10.1704545454545  50.82421875 10.3598484848485  50.47265625 10.5681818181818  C 50.12109375 10.7765151515152  49.46875 11.0014204545455  48.515625 11.2428977272727  C 47.5625 11.484375  46.390625 11.6761363636364  45 11.8181818181818  C 44.75 11.8465909090909  44.12109375 11.9128787878788  43.11328125 12.0170454545455  C 42.10546875 12.1212121212121  41.2734375 12.2064393939394  40.6171875 12  Z M 42.65625 8.26704545454545  L 40.7578125 8.69318181818182  C 41.5859375 9.03409090909091  42 9.46969696969697  42 10  C 42 10.530303030303  41.5859375 10.9659090909091  40.7578125 11.3068181818182  L 42.65625 11.7329545454545  C 43.71875 11.2784090909091  44.25 10.7007575757576  44.25 10  C 44.25 9.29924242424242  43.71875 8.72159090909091  42.65625 8.26704545454545  Z M 8.25 13.4090909090909  C 10.703125 13.4090909090909  12.8359375 13.1060606060606  14.6484375 12.5  L 38.4375 12.5  C 35.046875 12.8598484848485  31.484375 13.2386363636364  27.75 13.6363636363636  C 26.859375 13.6363636363636  25.9765625 13.75  25.1015625 13.9772727272727  C 24.2265625 14.2045454545455  23.578125 14.4318181818182  23.15625 14.6590909090909  L 22.5 15  L 15.75 19.0909090909091  C 15.34375 19.3371212121212  14.79296875 19.5501893939394  14.09765625 19.7301136363636  C 13.40234375 19.9100378787879  12.703125 20  12 20  L 9.75 20  L 7.5703125 13.4090909090909  L 8.25 13.4090909090909  Z M 14.6484375 7.5  C 12.8359375 6.89393939393939  10.703125 6.59090909090909  8.25 6.59090909090909  L 7.5703125 6.59090909090909  L 9.75 0  L 12 0  C 12.71875 0  13.421875 0.0899621212121193  14.109375 0.269886363636365  C 14.796875 0.449810606060603  15.34375 0.662878787878787  15.75 0.909090909090908  L 22.5 5  C 22.5625 5.03787878787879  22.6484375 5.0875946969697  22.7578125 5.14914772727273  C 22.8671875 5.21070075757576  23.10546875 5.31960227272727  23.47265625 5.47585227272727  C 23.83984375 5.63210227272727  24.21875 5.76941287878788  24.609375 5.88778409090909  C 25 6.0061553030303  25.48046875 6.11505681818182  26.05078125 6.21448863636363  C 26.62109375 6.31392045454545  27.1875 6.36363636363637  27.75 6.36363636363637  L 38.4375 7.5  L 14.6484375 7.5  Z " fill-rule="nonzero" fill="#326cad" stroke="none" transform="matrix(1 0 0 1 1312 338 )" />
  </g>
</svg>